<?xml version="1.0" encoding="UTF-8"?>
<svg width="60px" height="60px" viewBox="0 0 60 60" version="1.1" xmlns="http://www.w3.org/2000/svg" xmlns:xlink="http://www.w3.org/1999/xlink">
    <title>画板备份 13</title>
    <defs>
        <linearGradient x1="99.9963002%" y1="50.0096925%" x2="-0.00320482155%" y2="50.0096925%" id="linearGradient-1">
            <stop stop-color="#00499D" offset="0%"></stop>
            <stop stop-color="#1BB3E9" offset="100%"></stop>
        </linearGradient>
        <linearGradient x1="100%" y1="50.0161449%" x2="-0.000625392568%" y2="50.0161449%" id="linearGradient-2">
            <stop stop-color="#1BB3E9" offset="0%"></stop>
            <stop stop-color="#096CB6" offset="67%"></stop>
            <stop stop-color="#00499D" offset="100%"></stop>
        </linearGradient>
        <linearGradient x1="100%" y1="49.9940213%" x2="-0.00837942015%" y2="49.9940213%" id="linearGradient-3">
            <stop stop-color="#FCCE00" offset="0%"></stop>
            <stop stop-color="#6EAE2E" offset="41%"></stop>
            <stop stop-color="#67AB3E" offset="51%"></stop>
            <stop stop-color="#53A368" offset="69%"></stop>
            <stop stop-color="#449D88" offset="82%"></stop>
            <stop stop-color="#008CC8" offset="100%"></stop>
        </linearGradient>
        <linearGradient x1="3612.40562%" y1="49.9329721%" x2="3712.40551%" y2="49.9329721%" id="linearGradient-4">
            <stop stop-color="#FCCE00" offset="0%"></stop>
            <stop stop-color="#6EAE2E" offset="41%"></stop>
            <stop stop-color="#67AB3E" offset="51%"></stop>
            <stop stop-color="#53A368" offset="69%"></stop>
            <stop stop-color="#449D88" offset="82%"></stop>
            <stop stop-color="#008CC8" offset="100%"></stop>
        </linearGradient>
        <linearGradient x1="7249.8517%" y1="50.0044475%" x2="7349.8603%" y2="50.0044475%" id="linearGradient-5">
            <stop stop-color="#FCCE00" offset="0%"></stop>
            <stop stop-color="#6EAE2E" offset="41%"></stop>
            <stop stop-color="#67AB3E" offset="51%"></stop>
            <stop stop-color="#53A368" offset="69%"></stop>
            <stop stop-color="#449D88" offset="82%"></stop>
            <stop stop-color="#008CC8" offset="100%"></stop>
        </linearGradient>
        <linearGradient x1="99.9686128%" y1="50.0217292%" x2="-0.00753230327%" y2="50.0217292%" id="linearGradient-6">
            <stop stop-color="#FBB03B" offset="0%"></stop>
            <stop stop-color="#F15A24" offset="100%"></stop>
        </linearGradient>
        <linearGradient x1="99.9884985%" y1="49.9912294%" x2="5.13946788e-05%" y2="49.9912294%" id="linearGradient-7">
            <stop stop-color="#EFBD00" offset="0%"></stop>
            <stop stop-color="#ECB300" offset="15%"></stop>
            <stop stop-color="#E50012" offset="100%"></stop>
        </linearGradient>
        <linearGradient x1="50%" y1="100%" x2="50%" y2="0.00349620039%" id="linearGradient-8">
            <stop stop-color="#FFFFFF" stop-opacity="0" offset="0%"></stop>
            <stop stop-color="#E50012" stop-opacity="0.5" offset="100%"></stop>
        </linearGradient>
    </defs>
    <g id="画板备份-13" stroke="none" stroke-width="1" fill="none" fill-rule="evenodd">
        <g id="编组" transform="translate(-0.000000, 7.000000)">
            <path d="M3.78085776,5.02000247 C7.48399932,3.15190879 16.0336349,2.6736768 23.4684268,7.94319547 C25.1786352,9.16215887 26.7238544,10.5957284 28.065844,12.208427 C28.3989467,12.6069536 28.7250472,13.0184324 29.0441456,13.4428633 C31.131289,16.2479927 32.4667007,18.917125 33.1869227,21.3994479 C33.2244343,21.5324562 33.2619458,21.66397 33.2964565,21.7954838 C33.3609763,22.0360942 33.4194944,22.2737157 33.4720106,22.5113373 C33.574042,22.9686466 33.6535665,23.419978 33.713585,23.8563647 C33.7826063,24.3644862 33.8246193,24.8621463 33.8426248,25.3508397 L33.8426248,25.3508397 C33.859911,26.4592081 33.6920719,27.5627277 33.3459717,28.6162674 C31.3728635,34.5792225 24.2516682,41.6316497 19.3616608,35.7897472 C20.0323676,35.6208715 23.9170651,34.429775 25.8586636,29.1049607 C26.3670001,27.634453 26.6428741,26.094211 26.6764157,24.5393398 C26.6914203,24.0909973 26.6899199,23.6426548 26.6764157,23.1748841 C26.6764157,23.0119864 26.6614111,22.8475941 26.6509079,22.6817074 C26.6404046,22.5158207 26.6223991,22.3110776 26.6043935,22.1257627 C26.3730439,19.5601126 25.5758311,17.0769781 24.2696738,14.8536476 C23.1785977,13.0335071 21.6961126,11.476806 19.9288357,10.295499 C18.5586023,9.38844157 17.0545104,8.70015729 15.4709614,8.25554073 C4.95271901,5.23670134 1.66670603,10.6661288 1.86326663,12.4400706 C0.421322123,9.61850188 1.0230076,6.82831716 3.78085776,5.02000247 Z" id="路径" fill="url(#linearGradient-1)" fill-rule="nonzero"></path>
            <path d="M2.55047847,5.84644712 C2.91450345,5.51584861 3.32431198,5.23903572 3.7673536,5.0244859 L3.77485591,5.0244859 C1.0230076,6.82831716 0.421322123,9.61850188 1.86326663,12.4400706 C3.20167922,15.0598852 6.30463576,17.7051058 11.0821085,19.6135503 L11.0821085,19.6135503 C13.224862,20.4496488 15.4424997,21.0811601 17.7051502,21.4995777 L18.0202473,21.5593567 L18.3203398,21.6116633 L18.4448782,21.6340805 C21.1372268,22.0882521 23.8704207,22.2560781 26.5983917,22.1347296 C28.8093273,22.0383593 31.010835,21.7886755 33.1869227,21.3874921 C42.3397442,19.725636 49.1473428,15.9789873 49.2253668,15.9356475 C46.1164084,17.8874318 41.3209301,19.9707298 33.5635388,21.7252434 L33.2964565,21.783528 C31.1073091,22.2613256 28.8828098,22.5612068 26.644906,22.6802129 C23.8017981,22.8380202 20.9499156,22.6992759 18.1357829,22.2662434 C17.9677311,22.2408373 17.7996793,22.2139367 17.633128,22.1855417 L17.3210318,22.1317406 C15.0485562,21.7369165 12.8213297,21.1171234 10.6724822,20.2815806 L10.6724822,20.2815806 C5.62042484,18.3014013 1.8002472,15.2287608 0.229262917,11.5344188 C-0.654509521,8.93253788 1.20906496,6.91051328 2.55047847,5.84644712 Z" id="路径" fill="url(#linearGradient-2)" fill-rule="nonzero"></path>
            <path d="M10.6724822,20.292042 C12.8213297,21.1275847 15.0485562,21.7473778 17.3210318,22.1422019 L17.633128,22.196003 C17.7996793,22.2243981 17.9677311,22.2512986 18.1357829,22.2767047 L18.0277496,22.5173152 C17.8176849,22.9940527 17.6181233,23.5006797 17.4410688,24.0327127 C17.2009947,23.9923619 16.9669226,23.9505166 16.7343509,23.9071769 L16.4342584,23.8473979 C14.1754799,23.4183104 11.9741573,22.7302586 9.87423615,21.7969782 C7.53733921,20.7605036 5.3918379,19.3404238 3.52727959,17.5960092 C0.865459036,15.1719708 0.229262917,11.5344188 0.229262917,11.5344188 C1.8002472,15.2287608 5.62042484,18.3014013 10.6724822,20.292042 Z" id="路径" fill="url(#linearGradient-3)" fill-rule="nonzero"></path>
            <path d="M18.1357829,22.2767047 C20.9499156,22.7097372 23.8017981,22.8484815 26.644906,22.6906742 C28.8828098,22.5716682 31.1073091,22.2717869 33.2964565,21.7939893 L33.5635388,21.7357048 C41.3209301,19.9796967 46.1164084,17.8874318 49.2253668,15.9446143 C51.2257446,14.7174013 52.9937332,13.1492043 54.4484769,11.311742 C55.8619127,9.58412896 56.0779793,8.17334461 56.0659756,7.42610714 C56.8568155,7.98405993 57.374449,8.84858574 57.491415,9.80680573 C58.3496795,16.5573491 45.7878071,20.855459 45.7878071,20.855459 C45.7878071,20.855459 46.1059052,20.7478568 46.6445712,20.5446082 C45.1981254,21.1169921 43.5776258,21.6774202 41.7635666,22.2184202 C38.884179,22.9462295 36.2043529,23.4842404 33.7120846,23.8623426 C31.3810833,24.2232568 29.0317319,24.4547598 26.6749153,24.555779 C23.5868531,24.7013024 20.4919591,24.5285197 17.4395683,24.0401851 C17.6166229,23.508152 17.8161844,22.9940527 18.0262491,22.5247875 L18.1357829,22.2767047 Z" id="路径" fill="url(#linearGradient-4)" fill-rule="nonzero"></path>
            <path d="M57.491415,9.79933335 C57.3724342,8.84382041 56.8550155,7.98236562 56.0659756,7.42610714 C52.5879034,4.82572073 43.8357054,6.06464046 40.3726378,6.67886966 C41.0958608,6.45669105 41.8225848,6.24746456 42.5528099,6.05119018 C54.805587,2.78277347 58.490723,5.97198301 59.5365454,7.60992755 C59.7102472,7.86690769 59.8414527,8.14996777 59.9251652,8.448328 C61.0160015,14.6324653 49.8720662,19.3206332 46.6460717,20.5371358 C46.1074057,20.7403844 45.7893076,20.8479866 45.7893076,20.8479866 C45.7893076,20.8479866 58.3496795,16.5498767 57.491415,9.79933335 Z" id="路径" fill="url(#linearGradient-5)" fill-rule="nonzero"></path>
            <path d="M17.7051502,21.4995777 C17.5731095,21.7078079 17.4430694,21.922016 17.3150299,22.1422019 C17.4310435,21.9198516 17.5613548,21.7051968 17.7051502,21.4995777 L17.7051502,21.4995777 Z" id="路径"></path>
            <path d="M21.9514592,42.0082574 C22.3856858,42.1058053 22.825713,42.1756891 23.2688653,42.2174839" id="路径" fill="#666666" fill-rule="nonzero"></path>
            <path d="M14.7522399,29.9926788 C14.8842806,27.8645465 15.550486,25.7229639 16.4282565,23.8444089 C16.6683305,23.328815 16.9264101,22.8341438 17.191992,22.3633842 C17.2355054,22.287166 17.2775183,22.2139367 17.3210318,22.139213 C17.4490712,21.9180307 17.5791113,21.7038226 17.711152,21.4965888 C19.0045507,19.8063376 18.6114295,20.4175779 20.7510891,18.0772301 L20.7510891,18.0772301 C19.8519252,19.1701202 19.079779,20.3608171 18.4493796,21.6266081 C18.3493487,21.8348383 18.246317,22.0490463 18.1402843,22.2692323 L18.032251,22.5098428 C17.8221862,22.9865803 17.6226247,23.4932073 17.4455701,24.0252404 C16.3847431,27.2009996 16.108658,31.2584991 18.9055202,35.1949461 C19.0575671,35.4071616 19.2111144,35.6064249 19.3661622,35.7927361 C24.8593556,42.3489977 33.135907,32.6349105 33.7991114,26.4791682 C33.8186174,25.959091 33.8501271,25.5705275 33.8471262,25.3418728 C33.8591299,25.6676683 33.8591299,25.9889805 33.8471262,26.3058091 C33.8396239,26.5374528 33.8261197,26.7661074 33.8066137,26.9932676 C33.6565675,29.9328998 32.9063362,35.6896173 29.6203232,39.6126141 C28.120684,41.4136275 25.8438321,42.3876717 23.4999365,42.2309342 L23.2718662,42.211506 C22.828714,42.1697112 22.3886867,42.0998274 21.9544601,42.0022795 C18.7629763,41.2924039 14.4191372,35.3399102 14.7522399,29.9926788 Z" id="路径" fill="url(#linearGradient-6)" fill-rule="nonzero"></path>
            <path d="M9.8682343,21.7969782 C10.0572926,21.4133963 10.2608553,21.0248328 10.4789226,20.6312878 C10.541942,20.5177077 10.6064619,20.4056221 10.6724822,20.292042 C10.8035226,20.0648818 10.9400647,19.8362271 11.0821085,19.606078 C12.9741918,16.5468877 15.810066,13.3292832 19.9348375,10.295499 C21.023173,9.49844573 22.2030367,8.71434454 23.4744286,7.94319547 C28.0943528,5.16347207 33.9776665,2.65125968 41.4124584,0.721892522 C42.1830412,0.521673242 42.9659556,0.371905607 43.7561808,0.273550038 C47.1592299,-0.147891897 55.9354353,-0.727748177 58.3826897,4.04261585 C58.3826897,4.04261585 58.8253262,5.584914 59.272464,6.87315141 C59.6110572,7.34114376 59.8364895,7.8807385 59.9311671,8.44982247 C59.8474546,8.15146224 59.7162491,7.86840217 59.5425473,7.61142203 C58.4922235,5.96749959 54.8115889,2.78426795 42.5588117,6.05268466 C41.8275863,6.25194799 41.1008623,6.46117448 40.3786397,6.68036414 C35.9837849,8.03884186 31.7614833,9.91291345 28.0748468,12.2099214 C26.7572493,13.0237713 25.4877604,13.9124601 24.2726747,14.8715813 C23.0213221,15.8567986 21.8456834,16.9338303 20.7555905,18.0936693 L20.7555905,18.0936693 C18.6054277,20.4280392 19.0045507,19.8093265 17.7051502,21.4995777 C17.5613548,21.7051968 17.4310435,21.9198516 17.3150299,22.1422019 C17.2715165,22.2154312 17.2295035,22.2916494 17.1859901,22.3663732 C16.9204083,22.8371328 16.6623287,23.331804 16.4222547,23.8473979 C15.5444841,25.7259529 14.8782787,27.8675355 14.746238,29.9956678 C14.4131353,35.3399102 18.7044582,41.7915585 23.598967,42.2503624 L19.7277737,42.2025392 C14.5077312,42.1422585 9.92707839,38.7241049 8.40228239,33.7512833 C8.21472458,33.1370541 8.05117416,32.5004078 7.91763299,31.8413443 C7.47949793,29.6743557 7.80959969,25.9859915 9.8682343,21.7969782 Z" id="路径" fill="url(#linearGradient-7)" fill-rule="nonzero"></path>
            <path d="M13.7199216,46 C18.8363722,41.8173165 26.2068977,41.8173165 31.3233482,46 L13.7199216,46 Z" id="路径" fill="url(#linearGradient-8)" fill-rule="nonzero"></path>
        </g>
    </g>
</svg>